<svg xmlns="http://www.w3.org/2000/svg" viewBox="0 0 24 24" width="32" height="32">
  <rect width="24" height="24" rx="6" fill="#FF6A00" />
  <g fill="none" stroke="#FFFFFF" stroke-width="1.6">
    <circle cx="12" cy="12" r="8" />
    <circle cx="12" cy="12" r="2.5" />
    <line x1="14.5" y1="12" x2="20" y2="12" />
    <line x1="13.768" y1="13.768" x2="17.657" y2="17.657" />
    <line x1="12" y1="14.5" x2="12" y2="20" />
    <line x1="10.232" y1="13.768" x2="6.343" y2="17.657" />
    <line x1="9.5" y1="12" x2="4" y2="12" />
    <line x1="10.232" y1="10.232" x2="6.343" y2="6.343" />
    <line x1="12" y1="9.5" x2="12" y2="4" />
    <line x1="13.768" y1="10.232" x2="17.657" y2="6.343" />
  </g>
  <g stroke="#FFFFFF" stroke-width="2" stroke-linecap="round">
    <line x1="20" y1="12" x2="21.6" y2="12" />
    <line x1="17.657" y1="17.657" x2="18.788" y2="18.788" />
    <line x1="12" y1="20" x2="12" y2="21.6" />
    <line x1="6.343" y1="17.657" x2="5.212" y2="18.788" />
    <line x1="4" y1="12" x2="2.4" y2="12" />
    <line x1="6.343" y1="6.343" x2="5.212" y2="5.212" />
    <line x1="12" y1="4" x2="12" y2="2.4" />
    <line x1="17.657" y1="6.343" x2="18.788" y2="5.212" />
  </g>
  <circle cx="12" cy="12" r="1" fill="#FFFFFF" />
</svg>
